{
	"asset":{
		"generator":"Khronos glTF Blender I/O v4.5.47",
		"version":"2.0"
	},
	"scene":0,
	"scenes":[
		{
			"name":"Scene",
			"nodes":[
				18
			]
		}
	],
	"nodes":[
		{
			"name":"Bone.002",
			"rotation":[
				0.32245340943336487,
				-1.0486288570057649e-23,
				-7.159902666947106e-17,
				0.9465852975845337
			],
			"scale":[
				1,
				1.0000001192092896,
				1
			],
			"translation":[
				1.6543612251060553e-24,
				1.519503116607666,
				1.7881393432617188e-07
			]
		},
		{
			"name":"Bone.011.L",
			"rotation":[
				0.046175792813301086,
				-0.09539468586444855,
				0.041993722319602966,
				0.9934808611869812
			],
			"scale":[
				1.0000001192092896,
				1.0000001192092896,
				1
			],
			"translation":[
				-7.450580596923828e-09,
				1.0559990406036377,
				-1.0803341865539551e-07
			]
		},
		{
			"children":[
				1
			],
			"name":"Bone.010.L",
			"rotation":[
				-0.6875610947608948,
				-0.022701194509863853,
				-0.07265868782997131,
				0.7221254706382751
			],
			"scale":[
				0.9999999403953552,
				0.9999999403953552,
				0.9999998807907104
			],
			"translation":[
				0.39025670289993286,
				0.8390030860900879,
				-0.9007605910301208
			]
		},
		{
			"name":"Bone.011.R",
			"rotation":[
				0.046175792813301086,
				0.09539468586444855,
				-0.041993722319602966,
				0.9934808611869812
			],
			"scale":[
				1.0000001192092896,
				1.0000001192092896,
				1
			],
			"translation":[
				7.450580596923828e-09,
				1.0559990406036377,
				-1.0803341865539551e-07
			]
		},
		{
			"children":[
				3
			],
			"name":"Bone.010.R",
			"rotation":[
				-0.6875610947608948,
				0.022701194509863853,
				0.07265868782997131,
				0.7221254706382751
			],
			"scale":[
				0.9999999403953552,
				0.9999999403953552,
				0.9999998807907104
			],
			"translation":[
				-0.39025670289993286,
				0.8390030860900879,
				-0.9007605910301208
			]
		},
		{
			"children":[
				0,
				2,
				4
			],
			"name":"Bone.001",
			"rotation":[
				0.17748521268367767,
				-4.785383359455543e-18,
				-8.549345073376519e-17,
				0.9841234683990479
			],
			"scale":[
				1,
				0.9999999403953552,
				1
			],
			"translation":[
				3.9291079096268815e-23,
				2.4030020236968994,
				2.0675361156463623e-07
			]
		},
		{
			"name":"Bone.006",
			"rotation":[
				-0.5931500196456909,
				-2.1181464243159864e-13,
				-1.7865785366666387e-06,
				0.8050919771194458
			],
			"scale":[
				1,
				1,
				0.9999999403953552
			],
			"translation":[
				2.889492031060703e-13,
				1.0950725078582764,
				0
			]
		},
		{
			"children":[
				6
			],
			"name":"Bone.005",
			"rotation":[
				-0.14124678075313568,
				-1.4354769001072298e-14,
				-4.2543791778371087e-07,
				0.9899744391441345
			],
			"translation":[
				-1.143589617533941e-13,
				1.0480388402938843,
				-5.960464477539063e-08
			]
		},
		{
			"children":[
				7
			],
			"name":"Bone.004",
			"rotation":[
				1.177845092570351e-06,
				-0.6231568455696106,
				-0.7820969223976135,
				9.384799000144994e-07
			],
			"scale":[
				1,
				0.9999996423721313,
				0.9999998807907104
			],
			"translation":[
				5.2025044861767395e-17,
				-0.05778363347053528,
				0.250516802072525
			]
		},
		{
			"children":[
				5,
				8
			],
			"name":"Bone",
			"rotation":[
				-0.7580767869949341,
				4.451995575473497e-17,
				4.451991935878802e-17,
				0.6521653532981873
			],
			"scale":[
				1,
				0.9999999403953552,
				0.9999999403953552
			],
			"translation":[
				2.980910641108448e-16,
				1.3424828052520752,
				-1.805861234664917
			]
		},
		{
			"name":"Bone.009.L",
			"rotation":[
				0.44596561789512634,
				0.006668511312454939,
				0.013381795957684517,
				0.8949252367019653
			],
			"scale":[
				0.9999999403953552,
				1.0000001192092896,
				1
			],
			"translation":[
				-2.0489096641540527e-08,
				0.9159621596336365,
				-2.4568848289163725e-08
			]
		},
		{
			"children":[
				10
			],
			"name":"Bone.008.L",
			"rotation":[
				-0.5513933897018433,
				-0.04536931589245796,
				0.0434572733938694,
				0.8318764567375183
			],
			"scale":[
				0.9999999403953552,
				0.9999999403953552,
				0.9999998807907104
			],
			"translation":[
				1.4901161193847656e-08,
				1.07389235496521,
				1.8302814908111031e-07
			]
		},
		{
			"children":[
				11
			],
			"name":"Bone.007.L",
			"rotation":[
				-0.9374514222145081,
				-0.0630393996834755,
				-0.02297050692141056,
				0.3415893614292145
			],
			"scale":[
				1,
				1,
				1.0000004768371582
			],
			"translation":[
				0.39025670289993286,
				0.9933056831359863,
				-1.7784745693206787
			]
		},
		{
			"name":"Bone.009.R",
			"rotation":[
				0.44596561789512634,
				-0.006668511312454939,
				-0.013381795957684517,
				0.8949252367019653
			],
			"scale":[
				0.9999999403953552,
				1.0000001192092896,
				1
			],
			"translation":[
				2.0489096641540527e-08,
				0.9159621596336365,
				-2.4568848289163725e-08
			]
		},
		{
			"children":[
				13
			],
			"name":"Bone.008.R",
			"rotation":[
				-0.5513933897018433,
				0.04536931589245796,
				-0.0434572733938694,
				0.8318764567375183
			],
			"scale":[
				0.9999999403953552,
				0.9999999403953552,
				0.9999998807907104
			],
			"translation":[
				-1.4901161193847656e-08,
				1.07389235496521,
				1.8302814908111031e-07
			]
		},
		{
			"children":[
				14
			],
			"name":"Bone.007.R",
			"rotation":[
				-0.9374514222145081,
				0.0630393996834755,
				0.02297050692141056,
				0.3415893614292145
			],
			"scale":[
				1,
				1,
				1.0000004768371582
			],
			"translation":[
				-0.39025670289993286,
				0.9933056831359863,
				-1.7784745693206787
			]
		},
		{
			"children":[
				9,
				12,
				15
			],
			"name":"root",
			"translation":[
				2.973613452267852e-16,
				1.3391964435577393,
				4.132612705230713
			]
		},
		{
			"mesh":0,
			"name":"cat",
			"skin":0
		},
		{
			"children":[
				17,
				16
			],
			"name":"Armature"
		}
	],
	"animations":[
		{
			"channels":[
				{
					"sampler":0,
					"target":{
						"node":16,
						"path":"translation"
					}
				},
				{
					"sampler":1,
					"target":{
						"node":16,
						"path":"rotation"
					}
				},
				{
					"sampler":2,
					"target":{
						"node":16,
						"path":"scale"
					}
				},
				{
					"sampler":3,
					"target":{
						"node":9,
						"path":"translation"
					}
				},
				{
					"sampler":4,
					"target":{
						"node":9,
						"path":"rotation"
					}
				},
				{
					"sampler":5,
					"target":{
						"node":9,
						"path":"scale"
					}
				},
				{
					"sampler":6,
					"target":{
						"node":5,
						"path":"translation"
					}
				},
				{
					"sampler":7,
					"target":{
						"node":5,
						"path":"rotation"
					}
				},
				{
					"sampler":8,
					"target":{
						"node":5,
						"path":"scale"
					}
				},
				{
					"sampler":9,
					"target":{
						"node":0,
						"path":"translation"
					}
				},
				{
					"sampler":10,
					"target":{
						"node":0,
						"path":"rotation"
					}
				},
				{
					"sampler":11,
					"target":{
						"node":0,
						"path":"scale"
					}
				},
				{
					"sampler":12,
					"target":{
						"node":2,
						"path":"translation"
					}
				},
				{
					"sampler":13,
					"target":{
						"node":2,
						"path":"rotation"
					}
				},
				{
					"sampler":14,
					"target":{
						"node":2,
						"path":"scale"
					}
				},
				{
					"sampler":15,
					"target":{
						"node":1,
						"path":"translation"
					}
				},
				{
					"sampler":16,
					"target":{
						"node":1,
						"path":"rotation"
					}
				},
				{
					"sampler":17,
					"target":{
						"node":1,
						"path":"scale"
					}
				},
				{
					"sampler":18,
					"target":{
						"node":4,
						"path":"translation"
					}
				},
				{
					"sampler":19,
					"target":{
						"node":4,
						"path":"rotation"
					}
				},
				{
					"sampler":20,
					"target":{
						"node":4,
						"path":"scale"
					}
				},
				{
					"sampler":21,
					"target":{
						"node":3,
						"path":"translation"
					}
				},
				{
					"sampler":22,
					"target":{
						"node":3,
						"path":"rotation"
					}
				},
				{
					"sampler":23,
					"target":{
						"node":3,
						"path":"scale"
					}
				},
				{
					"sampler":24,
					"target":{
						"node":8,
						"path":"translation"
					}
				},
				{
					"sampler":25,
					"target":{
						"node":8,
						"path":"rotation"
					}
				},
				{
					"sampler":26,
					"target":{
						"node":8,
						"path":"scale"
					}
				},
				{
					"sampler":27,
					"target":{
						"node":7,
						"path":"translation"
					}
				},
				{
					"sampler":28,
					"target":{
						"node":7,
						"path":"rotation"
					}
				},
				{
					"sampler":29,
					"target":{
						"node":7,
						"path":"scale"
					}
				},
				{
					"sampler":30,
					"target":{
						"node":6,
						"path":"translation"
					}
				},
				{
					"sampler":31,
					"target":{
						"node":6,
						"path":"rotation"
					}
				},
				{
					"sampler":32,
					"target":{
						"node":6,
						"path":"scale"
					}
				},
				{
					"sampler":33,
					"target":{
						"node":12,
						"path":"translation"
					}
				},
				{
					"sampler":34,
					"target":{
						"node":12,
						"path":"rotation"
					}
				},
				{
					"sampler":35,
					"target":{
						"node":12,
						"path":"scale"
					}
				},
				{
					"sampler":36,
					"target":{
						"node":11,
						"path":"translation"
					}
				},
				{
					"sampler":37,
					"target":{
						"node":11,
						"path":"rotation"
					}
				},
				{
					"sampler":38,
					"target":{
						"node":11,
						"path":"scale"
					}
				},
				{
					"sampler":39,
					"target":{
						"node":10,
						"path":"translation"
					}
				},
				{
					"sampler":40,
					"target":{
						"node":10,
						"path":"rotation"
					}
				},
				{
					"sampler":41,
					"target":{
						"node":10,
						"path":"scale"
					}
				},
				{
					"sampler":42,
					"target":{
						"node":15,
						"path":"translation"
					}
				},
				{
					"sampler":43,
					"target":{
						"node":15,
						"path":"rotation"
					}
				},
				{
					"sampler":44,
					"target":{
						"node":15,
						"path":"scale"
					}
				},
				{
					"sampler":45,
					"target":{
						"node":14,
						"path":"translation"
					}
				},
				{
					"sampler":46,
					"target":{
						"node":14,
						"path":"rotation"
					}
				},
				{
					"sampler":47,
					"target":{
						"node":14,
						"path":"scale"
					}
				},
				{
					"sampler":48,
					"target":{
						"node":13,
						"path":"translation"
					}
				},
				{
					"sampler":49,
					"target":{
						"node":13,
						"path":"rotation"
					}
				},
				{
					"sampler":50,
					"target":{
						"node":13,
						"path":"scale"
					}
				}
			],
			"name":"walk",
			"samplers":[
				{
					"input":7,
					"interpolation":"STEP",
					"output":8
				},
				{
					"input":7,
					"interpolation":"STEP",
					"output":9
				},
				{
					"input":7,
					"interpolation":"STEP",
					"output":10
				},
				{
					"input":11,
					"interpolation":"LINEAR",
					"output":12
				},
				{
					"input":11,
					"interpolation":"LINEAR",
					"output":13
				},
				{
					"input":7,
					"interpolation":"STEP",
					"output":14
				},
				{
					"input":7,
					"interpolation":"STEP",
					"output":15
				},
				{
					"input":11,
					"interpolation":"LINEAR",
					"output":16
				},
				{
					"input":7,
					"interpolation":"STEP",
					"output":17
				},
				{
					"input":7,
					"interpolation":"STEP",
					"output":18
				},
				{
					"input":11,
					"interpolation":"LINEAR",
					"output":19
				},
				{
					"input":7,
					"interpolation":"STEP",
					"output":20
				},
				{
					"input":11,
					"interpolation":"LINEAR",
					"output":21
				},
				{
					"input":11,
					"interpolation":"LINEAR",
					"output":22
				},
				{
					"input":7,
					"interpolation":"STEP",
					"output":23
				},
				{
					"input":7,
					"interpolation":"STEP",
					"output":24
				},
				{
					"input":11,
					"interpolation":"LINEAR",
					"output":25
				},
				{
					"input":7,
					"interpolation":"STEP",
					"output":26
				},
				{
					"input":11,
					"interpolation":"LINEAR",
					"output":27
				},
				{
					"input":11,
					"interpolation":"LINEAR",
					"output":28
				},
				{
					"input":7,
					"interpolation":"STEP",
					"output":29
				},
				{
					"input":7,
					"interpolation":"STEP",
					"output":30
				},
				{
					"input":11,
					"interpolation":"LINEAR",
					"output":31
				},
				{
					"input":7,
					"interpolation":"STEP",
					"output":26
				},
				{
					"input":7,
					"interpolation":"STEP",
					"output":32
				},
				{
					"input":11,
					"interpolation":"LINEAR",
					"output":33
				},
				{
					"input":7,
					"interpolation":"STEP",
					"output":34
				},
				{
					"input":7,
					"interpolation":"STEP",
					"output":35
				},
				{
					"input":11,
					"interpolation":"LINEAR",
					"output":36
				},
				{
					"input":7,
					"interpolation":"STEP",
					"output":10
				},
				{
					"input":7,
					"interpolation":"STEP",
					"output":37
				},
				{
					"input":11,
					"interpolation":"LINEAR",
					"output":38
				},
				{
					"input":7,
					"interpolation":"STEP",
					"output":20
				},
				{
					"input":11,
					"interpolation":"LINEAR",
					"output":39
				},
				{
					"input":11,
					"interpolation":"LINEAR",
					"output":40
				},
				{
					"input":7,
					"interpolation":"STEP",
					"output":41
				},
				{
					"input":7,
					"interpolation":"STEP",
					"output":42
				},
				{
					"input":11,
					"interpolation":"LINEAR",
					"output":43
				},
				{
					"input":7,
					"interpolation":"STEP",
					"output":44
				},
				{
					"input":7,
					"interpolation":"STEP",
					"output":45
				},
				{
					"input":11,
					"interpolation":"LINEAR",
					"output":46
				},
				{
					"input":7,
					"interpolation":"STEP",
					"output":47
				},
				{
					"input":11,
					"interpolation":"LINEAR",
					"output":48
				},
				{
					"input":11,
					"interpolation":"LINEAR",
					"output":49
				},
				{
					"input":7,
					"interpolation":"STEP",
					"output":50
				},
				{
					"input":7,
					"interpolation":"STEP",
					"output":51
				},
				{
					"input":11,
					"interpolation":"LINEAR",
					"output":52
				},
				{
					"input":7,
					"interpolation":"STEP",
					"output":53
				},
				{
					"input":7,
					"interpolation":"STEP",
					"output":54
				},
				{
					"input":11,
					"interpolation":"LINEAR",
					"output":55
				},
				{
					"input":7,
					"interpolation":"STEP",
					"output":56
				}
			]
		}
	],
	"materials":[
		{
			"doubleSided":true,
			"name":"Material",
			"pbrMetallicRoughness":{
				"baseColorTexture":{
					"index":0
				},
				"metallicFactor":0
			}
		}
	],
	"meshes":[
		{
			"name":"Cube",
			"primitives":[
				{
					"attributes":{
						"POSITION":0,
						"NORMAL":1,
						"TEXCOORD_0":2,
						"JOINTS_0":3,
						"WEIGHTS_0":4
					},
					"indices":5,
					"material":0
				}
			]
		}
	],
	"textures":[
		{
			"sampler":0,
			"source":0
		}
	],
	"images":[
		{
			"mimeType":"image/png",
			"name":"catskin",
			"uri":"catskin.png"
		}
	],
	"skins":[
		{
			"inverseBindMatrices":6,
			"joints":[
				16,
				9,
				5,
				0,
				2,
				1,
				4,
				3,
				8,
				7,
				6,
				12,
				11,
				10,
				15,
				14,
				13
			],
			"name":"Armature"
		}
	],
	"accessors":[
		{
			"bufferView":0,
			"componentType":5126,
			"count":1438,
			"max":[
				0.8512269258499146,
				5.213903903961182,
				3.5737409591674805
			],
			"min":[
				-0.8512269258499146,
				0,
				-2.8878936767578125
			],
			"type":"VEC3"
		},
		{
			"bufferView":1,
			"componentType":5126,
			"count":1438,
			"type":"VEC3"
		},
		{
			"bufferView":2,
			"componentType":5126,
			"count":1438,
			"type":"VEC2"
		},
		{
			"bufferView":3,
			"componentType":5121,
			"count":1438,
			"type":"VEC4"
		},
		{
			"bufferView":4,
			"componentType":5126,
			"count":1438,
			"type":"VEC4"
		},
		{
			"bufferView":5,
			"componentType":5123,
			"count":2400,
			"type":"SCALAR"
		},
		{
			"bufferView":6,
			"componentType":5126,
			"count":17,
			"type":"MAT4"
		},
		{
			"bufferView":7,
			"componentType":5126,
			"count":2,
			"max":[
				0.8333333333333334
			],
			"min":[
				0.041666666666666664
			],
			"type":"SCALAR"
		},
		{
			"bufferView":8,
			"componentType":5126,
			"count":2,
			"type":"VEC3"
		},
		{
			"bufferView":9,
			"componentType":5126,
			"count":2,
			"type":"VEC4"
		},
		{
			"bufferView":10,
			"componentType":5126,
			"count":2,
			"type":"VEC3"
		},
		{
			"bufferView":11,
			"componentType":5126,
			"count":20,
			"max":[
				0.8333333333333334
			],
			"min":[
				0.041666666666666664
			],
			"type":"SCALAR"
		},
		{
			"bufferView":12,
			"componentType":5126,
			"count":20,
			"type":"VEC3"
		},
		{
			"bufferView":13,
			"componentType":5126,
			"count":20,
			"type":"VEC4"
		},
		{
			"bufferView":14,
			"componentType":5126,
			"count":2,
			"type":"VEC3"
		},
		{
			"bufferView":15,
			"componentType":5126,
			"count":2,
			"type":"VEC3"
		},
		{
			"bufferView":16,
			"componentType":5126,
			"count":20,
			"type":"VEC4"
		},
		{
			"bufferView":17,
			"componentType":5126,
			"count":2,
			"type":"VEC3"
		},
		{
			"bufferView":18,
			"componentType":5126,
			"count":2,
			"type":"VEC3"
		},
		{
			"bufferView":19,
			"componentType":5126,
			"count":20,
			"type":"VEC4"
		},
		{
			"bufferView":20,
			"componentType":5126,
			"count":2,
			"type":"VEC3"
		},
		{
			"bufferView":21,
			"componentType":5126,
			"count":20,
			"type":"VEC3"
		},
		{
			"bufferView":22,
			"componentType":5126,
			"count":20,
			"type":"VEC4"
		},
		{
			"bufferView":23,
			"componentType":5126,
			"count":2,
			"type":"VEC3"
		},
		{
			"bufferView":24,
			"componentType":5126,
			"count":2,
			"type":"VEC3"
		},
		{
			"bufferView":25,
			"componentType":5126,
			"count":20,
			"type":"VEC4"
		},
		{
			"bufferView":26,
			"componentType":5126,
			"count":2,
			"type":"VEC3"
		},
		{
			"bufferView":27,
			"componentType":5126,
			"count":20,
			"type":"VEC3"
		},
		{
			"bufferView":28,
			"componentType":5126,
			"count":20,
			"type":"VEC4"
		},
		{
			"bufferView":29,
			"componentType":5126,
			"count":2,
			"type":"VEC3"
		},
		{
			"bufferView":30,
			"componentType":5126,
			"count":2,
			"type":"VEC3"
		},
		{
			"bufferView":31,
			"componentType":5126,
			"count":20,
			"type":"VEC4"
		},
		{
			"bufferView":32,
			"componentType":5126,
			"count":2,
			"type":"VEC3"
		},
		{
			"bufferView":33,
			"componentType":5126,
			"count":20,
			"type":"VEC4"
		},
		{
			"bufferView":34,
			"componentType":5126,
			"count":2,
			"type":"VEC3"
		},
		{
			"bufferView":35,
			"componentType":5126,
			"count":2,
			"type":"VEC3"
		},
		{
			"bufferView":36,
			"componentType":5126,
			"count":20,
			"type":"VEC4"
		},
		{
			"bufferView":37,
			"componentType":5126,
			"count":2,
			"type":"VEC3"
		},
		{
			"bufferView":38,
			"componentType":5126,
			"count":20,
			"type":"VEC4"
		},
		{
			"bufferView":39,
			"componentType":5126,
			"count":20,
			"type":"VEC3"
		},
		{
			"bufferView":40,
			"componentType":5126,
			"count":20,
			"type":"VEC4"
		},
		{
			"bufferView":41,
			"componentType":5126,
			"count":2,
			"type":"VEC3"
		},
		{
			"bufferView":42,
			"componentType":5126,
			"count":2,
			"type":"VEC3"
		},
		{
			"bufferView":43,
			"componentType":5126,
			"count":20,
			"type":"VEC4"
		},
		{
			"bufferView":44,
			"componentType":5126,
			"count":2,
			"type":"VEC3"
		},
		{
			"bufferView":45,
			"componentType":5126,
			"count":2,
			"type":"VEC3"
		},
		{
			"bufferView":46,
			"componentType":5126,
			"count":20,
			"type":"VEC4"
		},
		{
			"bufferView":47,
			"componentType":5126,
			"count":2,
			"type":"VEC3"
		},
		{
			"bufferView":48,
			"componentType":5126,
			"count":20,
			"type":"VEC3"
		},
		{
			"bufferView":49,
			"componentType":5126,
			"count":20,
			"type":"VEC4"
		},
		{
			"bufferView":50,
			"componentType":5126,
			"count":2,
			"type":"VEC3"
		},
		{
			"bufferView":51,
			"componentType":5126,
			"count":2,
			"type":"VEC3"
		},
		{
			"bufferView":52,
			"componentType":5126,
			"count":20,
			"type":"VEC4"
		},
		{
			"bufferView":53,
			"componentType":5126,
			"count":2,
			"type":"VEC3"
		},
		{
			"bufferView":54,
			"componentType":5126,
			"count":2,
			"type":"VEC3"
		},
		{
			"bufferView":55,
			"componentType":5126,
			"count":20,
			"type":"VEC4"
		},
		{
			"bufferView":56,
			"componentType":5126,
			"count":2,
			"type":"VEC3"
		}
	],
	"bufferViews":[
		{
			"buffer":0,
			"byteLength":17256,
			"byteOffset":0,
			"target":34962
		},
		{
			"buffer":0,
			"byteLength":17256,
			"byteOffset":17256,
			"target":34962
		},
		{
			"buffer":0,
			"byteLength":11504,
			"byteOffset":34512,
			"target":34962
		},
		{
			"buffer":0,
			"byteLength":5752,
			"byteOffset":46016,
			"target":34962
		},
		{
			"buffer":0,
			"byteLength":23008,
			"byteOffset":51768,
			"target":34962
		},
		{
			"buffer":0,
			"byteLength":4800,
			"byteOffset":74776,
			"target":34963
		},
		{
			"buffer":0,
			"byteLength":1088,
			"byteOffset":79576
		},
		{
			"buffer":0,
			"byteLength":8,
			"byteOffset":80664
		},
		{
			"buffer":0,
			"byteLength":24,
			"byteOffset":80672
		},
		{
			"buffer":0,
			"byteLength":32,
			"byteOffset":80696
		},
		{
			"buffer":0,
			"byteLength":24,
			"byteOffset":80728
		},
		{
			"buffer":0,
			"byteLength":80,
			"byteOffset":80752
		},
		{
			"buffer":0,
			"byteLength":240,
			"byteOffset":80832
		},
		{
			"buffer":0,
			"byteLength":320,
			"byteOffset":81072
		},
		{
			"buffer":0,
			"byteLength":24,
			"byteOffset":81392
		},
		{
			"buffer":0,
			"byteLength":24,
			"byteOffset":81416
		},
		{
			"buffer":0,
			"byteLength":320,
			"byteOffset":81440
		},
		{
			"buffer":0,
			"byteLength":24,
			"byteOffset":81760
		},
		{
			"buffer":0,
			"byteLength":24,
			"byteOffset":81784
		},
		{
			"buffer":0,
			"byteLength":320,
			"byteOffset":81808
		},
		{
			"buffer":0,
			"byteLength":24,
			"byteOffset":82128
		},
		{
			"buffer":0,
			"byteLength":240,
			"byteOffset":82152
		},
		{
			"buffer":0,
			"byteLength":320,
			"byteOffset":82392
		},
		{
			"buffer":0,
			"byteLength":24,
			"byteOffset":82712
		},
		{
			"buffer":0,
			"byteLength":24,
			"byteOffset":82736
		},
		{
			"buffer":0,
			"byteLength":320,
			"byteOffset":82760
		},
		{
			"buffer":0,
			"byteLength":24,
			"byteOffset":83080
		},
		{
			"buffer":0,
			"byteLength":240,
			"byteOffset":83104
		},
		{
			"buffer":0,
			"byteLength":320,
			"byteOffset":83344
		},
		{
			"buffer":0,
			"byteLength":24,
			"byteOffset":83664
		},
		{
			"buffer":0,
			"byteLength":24,
			"byteOffset":83688
		},
		{
			"buffer":0,
			"byteLength":320,
			"byteOffset":83712
		},
		{
			"buffer":0,
			"byteLength":24,
			"byteOffset":84032
		},
		{
			"buffer":0,
			"byteLength":320,
			"byteOffset":84056
		},
		{
			"buffer":0,
			"byteLength":24,
			"byteOffset":84376
		},
		{
			"buffer":0,
			"byteLength":24,
			"byteOffset":84400
		},
		{
			"buffer":0,
			"byteLength":320,
			"byteOffset":84424
		},
		{
			"buffer":0,
			"byteLength":24,
			"byteOffset":84744
		},
		{
			"buffer":0,
			"byteLength":320,
			"byteOffset":84768
		},
		{
			"buffer":0,
			"byteLength":240,
			"byteOffset":85088
		},
		{
			"buffer":0,
			"byteLength":320,
			"byteOffset":85328
		},
		{
			"buffer":0,
			"byteLength":24,
			"byteOffset":85648
		},
		{
			"buffer":0,
			"byteLength":24,
			"byteOffset":85672
		},
		{
			"buffer":0,
			"byteLength":320,
			"byteOffset":85696
		},
		{
			"buffer":0,
			"byteLength":24,
			"byteOffset":86016
		},
		{
			"buffer":0,
			"byteLength":24,
			"byteOffset":86040
		},
		{
			"buffer":0,
			"byteLength":320,
			"byteOffset":86064
		},
		{
			"buffer":0,
			"byteLength":24,
			"byteOffset":86384
		},
		{
			"buffer":0,
			"byteLength":240,
			"byteOffset":86408
		},
		{
			"buffer":0,
			"byteLength":320,
			"byteOffset":86648
		},
		{
			"buffer":0,
			"byteLength":24,
			"byteOffset":86968
		},
		{
			"buffer":0,
			"byteLength":24,
			"byteOffset":86992
		},
		{
			"buffer":0,
			"byteLength":320,
			"byteOffset":87016
		},
		{
			"buffer":0,
			"byteLength":24,
			"byteOffset":87336
		},
		{
			"buffer":0,
			"byteLength":24,
			"byteOffset":87360
		},
		{
			"buffer":0,
			"byteLength":320,
			"byteOffset":87384
		},
		{
			"buffer":0,
			"byteLength":24,
			"byteOffset":87704
		}
	],
	"samplers":[
		{
			"magFilter":9728,
			"minFilter":9984
		}
	],
	"buffers":[
		{
			"byteLength":87728,
			"uri":"cat.bin"
		}
	]
}
